<?xml version="1.0" encoding="UTF-8" standalone="no"?>
<!-- Created with Inkscape (http://www.inkscape.org/) -->

<svg
   width="270.93332mm"
   height="270.93332mm"
   viewBox="0 0 270.93332 270.93332"
   version="1.1"
   id="svg1"
   xml:space="preserve"
   inkscape:version="1.4.2 (f4327f4, 2025-05-13)"
   sodipodi:docname="yap.svg"
   xmlns:inkscape="http://www.inkscape.org/namespaces/inkscape"
   xmlns:sodipodi="http://sodipodi.sourceforge.net/DTD/sodipodi-0.dtd"
   xmlns="http://www.w3.org/2000/svg"
   xmlns:svg="http://www.w3.org/2000/svg"><sodipodi:namedview
     id="namedview1"
     pagecolor="#505050"
     bordercolor="#eeeeee"
     borderopacity="1"
     inkscape:showpageshadow="0"
     inkscape:pageopacity="0"
     inkscape:pagecheckerboard="0"
     inkscape:deskcolor="#505050"
     inkscape:document-units="mm"
     inkscape:zoom="0.60132576"
     inkscape:cx="489.75118"
     inkscape:cy="529.66299"
     inkscape:window-width="1600"
     inkscape:window-height="877"
     inkscape:window-x="-8"
     inkscape:window-y="-8"
     inkscape:window-maximized="1"
     inkscape:current-layer="layer1" /><defs
     id="defs1" /><g
     inkscape:label="Layer 1"
     inkscape:groupmode="layer"
     id="layer1"
     transform="translate(24.289997,-8.3358469)"><path
       style="fill:#000000"
       d="m 101.65166,267.99846 c -0.50932,-0.0568 -2.235726,-0.22918 -3.836455,-0.38296 C 79.571029,265.86276 58.261459,258.25808 42.666618,247.93479 34.516697,242.5398 28.404629,237.5379 21.482917,230.5988 12.337811,221.43072 4.8905966,211.46648 -0.37133492,201.35821 -10.384859,182.12205 -14.762619,165.34274 -15.215167,144.46396 c -0.22791,-10.51488 0.401736,-17.74858 2.412797,-27.71944 C -8.7912849,96.857521 1.2851621,76.335358 14.527905,61.082404 29.673719,43.637499 48.706166,30.883987 70.563123,23.533589 c 13.646849,-4.589375 25.667015,-6.465362 41.407287,-6.462435 8.03691,0.0015 11.5276,0.211816 17.85938,1.076066 12.65532,1.727378 24.07921,5.215886 36.24791,11.069015 17.25469,8.299477 33.24686,20.93665 44.6644,35.294234 15.10718,18.997327 23.61617,40.096301 26.42903,65.533701 0.50272,4.54626 0.42376,19.67306 -0.13059,25.01652 -3.02521,29.16063 -15.28939,54.98129 -35.88059,75.54204 -6.6513,6.64146 -11.21591,10.50997 -18.28121,15.49333 -14.37857,10.14162 -30.72322,16.90667 -49.2125,20.36906 -7.01116,1.31294 -9.05183,1.4687 -20.37291,1.555 -5.89359,0.0449 -11.13234,0.0352 -11.64167,-0.0217 z m 20.6375,-3.54817 c 1.67349,-0.14424 4.20357,-0.39977 5.6224,-0.56784 l 2.57968,-0.30558 V 249.924 c 0,-14.34938 0.13295,-16.68054 1.32924,-23.30691 0.94461,-5.23238 1.54828,-7.13111 3.74331,-11.77396 2.18025,-4.61161 3.25849,-7.47832 3.5579,-9.45933 l 0.16988,-1.12401 -0.92851,0.88072 c -1.71381,1.62559 -7.97869,5.83617 -10.64994,7.15774 -5.34748,2.6456 -10.43323,3.81689 -16.53646,3.80846 -7.13355,-0.01 -13.042151,-1.59127 -19.045769,-5.09757 -2.233319,-1.30433 -5.993652,-4.09374 -7.605451,-5.64172 -0.615413,-0.59104 -1.191361,-1.00219 -1.279885,-0.91367 -0.212097,0.2121 0.333761,2.83893 1.004327,4.83313 0.293596,0.87312 1.287743,3.01916 2.209216,4.76896 1.881927,3.57364 2.975144,6.66192 3.797009,10.72634 1.320901,6.53235 1.402885,7.79538 1.529928,23.56971 l 0.120709,14.98793 2.028189,0.28899 c 2.019785,0.28779 6.099507,0.74648 8.113607,0.91223 2.58963,0.2131 17.49049,0.1463 20.24062,-0.0908 z m 14.34601,-2.09928 c 11.78953,-2.42578 24.58023,-7.19738 34.93264,-13.03166 l 2.3151,-1.30472 v -7.91134 c 0,-7.55092 0.0233,-7.92381 0.51177,-8.18523 0.88383,-0.47301 1.82616,-0.32139 2.27677,0.36633 0.3678,0.56133 0.39624,1.44172 0.23076,7.14375 -0.1038,3.57694 -0.0905,6.50353 0.0295,6.50353 0.75156,0 12.28865,-8.54095 12.91705,-9.56253 0.20204,-0.32845 -0.0381,-1.13517 -0.98442,-3.3073 -4.10656,-9.42579 -7.79224,-14.25598 -14.18768,-18.59335 -3.25837,-2.20982 -9.24094,-5.57849 -9.9071,-5.57849 -0.62583,0 -7.9171,3.06955 -10.78166,4.53896 -5.02121,2.57571 -8.54264,5.26587 -12.4201,9.48821 -2.75904,3.00445 -4.67166,5.74826 -6.26774,8.99158 l -1.23694,2.51354 -0.0749,14.22136 c -0.0412,7.82174 -0.0245,14.22135 0.037,14.22135 0.0616,0 1.23604,-0.23129 2.60994,-0.51399 z m -48.265925,-13.83965 -0.07904,-14.08907 -0.717765,-1.53183 c -1.822282,-3.88907 -5.351071,-8.52429 -9.473988,-12.4445 -2.922952,-2.77925 -5.593451,-4.67183 -9.519704,-6.74661 C 66.080296,212.37907 58.019264,208.89 57.467385,208.89 c -0.434618,0 -5.721678,2.93334 -8.937149,4.95847 -2.090671,1.31671 -3.643123,2.58868 -5.895794,4.83059 -4.152686,4.13284 -6.68863,7.95842 -8.845852,13.34434 l -1.573718,3.92909 1.142017,1.01345 c 2.388552,2.11966 11.458142,8.70114 11.990571,8.70114 0.119581,0 0.186556,-3.04037 0.148834,-6.75638 -0.07552,-7.43951 -0.115541,-7.2544 1.570056,-7.26248 1.510743,-0.007 1.548918,0.20478 1.542324,8.56629 l -0.006,7.5661 2.645834,1.47238 c 7.967821,4.43402 16.756754,8.08702 25.53229,10.61215 4.081625,1.17447 10.284508,2.67994 11.191539,2.71623 0.453392,0.0181 0.472174,-0.64769 0.396875,-14.07001 z m -56.374838,-19.8921 c 2.645396,-5.72481 4.242262,-8.07425 8.117408,-11.94297 3.526611,-3.52077 7.196689,-6.14329 11.996621,-8.57239 1.491589,-0.75485 2.711979,-1.49308 2.711979,-1.64051 0,-0.14742 -0.238375,-0.57109 -0.529722,-0.94148 -1.236979,-1.57256 -1.674406,-5.20799 -0.95276,-7.91833 0.694361,-2.60787 3.687806,-6.31541 7.674231,-9.50494 3.572156,-2.85808 8.04349,-4.88968 14.48344,-6.58072 3.766347,-0.98899 9.176753,-1.99403 10.770373,-2.00072 0.531242,-0.002 1.125263,-0.10506 1.320047,-0.22853 0.393184,-0.24921 0.442259,-0.21621 -4.322902,-2.90682 -10.66893,-6.02411 -17.501163,-14.00643 -21.317921,-24.90643 -0.725363,-2.07151 -0.675312,-1.99943 -1.127696,-1.62399 -0.503685,0.41803 -4.281016,1.35941 -5.454658,1.35941 -0.528231,0 -1.670045,-0.18318 -2.537364,-0.40708 -4.857749,-1.25398 -8.061495,-4.1182 -10.586136,-9.46424 -1.527944,-3.23548 -1.831887,-4.82191 -1.835502,-9.58038 l -0.0032,-4.23816 0.894842,-1.81842 c 1.858794,-3.77728 6.408184,-7.20952 10.180913,-7.68089 0.796309,-0.0995 1.499832,-0.32239 1.563385,-0.49534 0.06355,-0.17295 0.0058,-1.26695 -0.128252,-2.43111 -0.134091,-1.16417 -0.194318,-3.90261 -0.133837,-6.08542 0.0918,-3.31317 0.206288,-4.20552 0.69309,-5.40214 0.431147,-1.05981 0.607905,-2.12866 0.678201,-4.101044 0.169718,-4.762014 0.939947,-14.510284 1.349212,-17.076076 1.832559,-11.488803 6.739188,-20.515807 15.064945,-27.715836 8.68629,-7.511814 18.018305,-11.390691 30.479477,-12.668877 2.29951,-0.235869 4.32977,-0.471964 4.51167,-0.524655 0.1819,-0.05269 0.33073,-0.378742 0.33073,-0.724557 0,-1.446313 2.39682,-2.282345 6.66917,-2.326265 2.58475,-0.02657 3.46738,0.405622 3.95289,1.935607 l 0.35814,1.12863 3.175,0.331186 c 8.62458,0.899632 16.02508,3.084922 22.75417,6.719061 4.30803,2.326612 7.54752,4.746766 11.11269,8.302052 8.74206,8.717813 12.63382,18.248146 13.5055,33.072915 0.0856,1.455208 0.33225,4.108485 0.54818,5.89617 0.21593,1.787685 0.37032,3.990341 0.34309,4.894789 -0.0361,1.19989 0.12068,2.07363 0.58002,3.23196 0.58633,1.47856 0.62648,1.90523 0.58515,6.2177 -0.0244,2.54662 -0.1223,5.37435 -0.21754,6.28386 l -0.17317,1.65364 h 1.46634 c 3.23867,0 6.69634,1.99618 8.79527,5.07767 2.21798,3.25626 2.59166,4.49592 2.57681,8.54838 -0.0151,4.11717 -0.62742,6.99906 -2.20035,10.35561 -1.34178,2.86328 -4.51216,6.16357 -7.15637,7.44962 -1.87799,0.91339 -4.41299,1.64427 -5.67798,1.63705 -1.17883,-0.007 -4.28794,-0.70638 -5.23208,-1.17738 -0.44963,-0.2243 -0.83749,-0.37754 -0.86193,-0.34053 -0.0244,0.037 -0.37457,1.01979 -0.77808,2.18396 -1.06576,3.07478 -3.32676,7.72066 -4.98487,10.24285 -3.96328,6.02862 -9.50508,10.87846 -17.33372,15.16938 -1.77723,0.97412 -3.23134,1.87588 -3.23134,2.00392 0,0.12804 0.58349,0.2328 1.29663,0.2328 3.07699,0 10.40833,1.60227 15.73428,3.43874 5.91299,2.03888 8.80599,3.77654 12.77551,7.67352 3.85909,3.78857 4.92743,5.89584 4.9632,9.78983 0.0212,2.30199 -0.0479,2.66334 -0.82005,4.29339 l -0.84315,1.77984 0.76536,0.54499 c 0.42095,0.29974 1.33615,0.79436 2.03377,1.09914 3.88642,1.69795 8.01555,4.68422 11.99032,8.67165 3.24405,3.25437 5.21835,6.09459 7.28898,10.48587 0.81831,1.73543 1.84082,3.89946 2.27224,4.80897 0.43142,0.9095 0.91267,1.65365 1.06945,1.65365 0.43535,0 9.58175,-9.27915 12.37352,-12.5531 7.45318,-8.74046 14.36232,-19.74175 18.78596,-29.91253 5.03259,-11.57087 7.90739,-22.29484 9.42747,-35.16769 0.56743,-4.80528 0.7907,-18.35912 0.38931,-23.63271 -2.0133,-26.451 -12.10947,-50.322166 -29.79581,-70.448549 -2.95632,-3.364183 -9.47648,-9.770246 -12.55699,-12.337247 -17.38768,-14.489247 -38.2783,-24.26359 -59.26666,-27.729803 -6.73439,-1.112178 -11.76424,-1.472531 -20.55374,-1.472531 -8.48209,0 -14.503764,0.445994 -21.51501,1.593504 C 53.571383,28.107292 20.327587,51.616315 2.8543505,83.921168 -5.0403618,98.517063 -9.6681932,113.32112 -11.497803,129.83256 c -0.563665,5.08682 -0.639669,17.83212 -0.136164,22.83349 1.696731,16.85378 5.8126934,30.85849 13.3748286,45.50833 5.9224566,11.47335 13.8188334,22.03091 23.8367594,31.87005 3.481685,3.41955 3.92327,3.77141 4.17304,3.3251 0.15363,-0.27453 1.163316,-2.41215 2.243746,-4.75027 z m 105.251433,-5.27832 c 3.58307,-4.83025 9.27522,-10.02482 13.05999,-11.91836 1.25297,-0.62686 4.54031,-2.05433 7.30521,-3.17215 6.0169,-2.43257 6.89284,-2.97846 7.89253,-4.91865 0.65852,-1.27806 0.73463,-1.66728 0.63137,-3.22893 -0.20717,-3.13323 -2.01643,-5.86324 -5.79981,-8.75142 -2.49496,-1.9046 -4.60549,-3.08114 -7.89337,-4.40025 -4.47334,-1.79471 -12.00037,-3.66097 -16.71263,-4.14376 l -1.7468,-0.17896 -0.18997,2.0273 c -0.10449,1.11502 -0.1393,3.08722 -0.0774,4.38266 0.10099,2.11216 0.2259,2.58397 1.2099,4.56976 0.86048,1.73653 1.61194,2.73947 3.48201,4.64731 1.3116,1.33809 2.52662,2.69802 2.70004,3.02207 0.30631,0.57235 0.32116,0.57423 0.51976,0.0659 0.45433,-1.16289 0.2395,-3.27106 -0.55212,-5.41806 -0.94276,-2.55689 -0.97335,-3.0192 -0.23403,-3.53704 1.33109,-0.93233 2.57466,0.57629 3.41446,4.1422 0.66525,2.82474 0.61299,3.54287 -0.559,7.682 -1.00158,3.53728 -2.31585,6.72121 -4.91777,11.91371 -2.30553,4.60101 -3.11436,6.63657 -3.38005,8.50642 -0.21572,1.51818 -0.25943,1.54873 1.84765,-1.29177 z m -50.526656,0.96104 c -0.348592,-1.97973 -1.044669,-3.73678 -3.590013,-9.06198 -3.203056,-6.70121 -3.802496,-8.17012 -4.696798,-11.50937 -0.939011,-3.50619 -0.937849,-5.90695 0.0041,-8.55882 0.845804,-2.38109 1.324708,-2.95056 2.481323,-2.95056 1.347002,0 1.441346,0.89481 0.404368,3.83521 -0.823815,2.33596 -1.030771,4.17312 -0.595581,5.28702 0.194338,0.49742 0.221195,0.49088 0.543709,-0.13229 0.186599,-0.36056 1.43689,-1.78666 2.778424,-3.1691 2.675528,-2.75713 3.69767,-4.29527 4.261277,-6.41245 0.386613,-1.4523 0.498736,-5.59044 0.208789,-7.70583 -0.159248,-1.16185 -0.212359,-1.2275 -0.992187,-1.22649 -1.118581,0.001 -5.302936,0.67744 -8.364557,1.35133 -3.83822,0.84481 -9.3884,2.7298 -12.038541,4.0886 -4.522657,2.31889 -8.620504,5.87463 -10.054166,8.7241 -0.688207,1.36784 -0.79375,1.86469 -0.79375,3.73663 0,1.97719 0.06767,2.25538 0.803581,3.30337 1.092272,1.55549 1.834374,2.0042 6.242696,3.7747 6.080405,2.44204 10.410602,4.67621 12.929763,6.67112 2.94103,2.32899 7.791292,7.20478 9.244684,9.29335 0.632906,0.90951 1.206268,1.65365 1.274139,1.65365 0.06787,0 0.04478,-0.44649 -0.0513,-0.99219 z M 116.46833,212.4527 c 6.99795,-1.12456 13.77638,-4.4629 19.25121,-9.48113 l 1.12725,-1.03324 -2.23036,-2.31364 c -2.47224,-2.56456 -3.0559,-3.52813 -3.86709,-6.38419 -0.46114,-1.62361 -0.54949,-2.64532 -0.53428,-6.17862 0.01,-2.32833 0.0916,-4.79888 0.18128,-5.4901 0.0897,-0.69123 0.0584,-1.25458 -0.0695,-1.25191 -0.12788,0.003 -1.54221,0.42306 -3.14294,0.93419 -4.97786,1.58947 -10.76838,2.50053 -15.89291,2.50053 -5.04287,0 -11.920295,-1.13031 -16.689484,-2.74293 l -2.684483,-0.9077 0.139897,5.33104 c 0.115905,4.41675 0.06505,5.626 -0.296519,7.05084 -0.788488,3.1072 -1.878518,4.95312 -4.306065,7.29214 l -2.21349,2.13278 3.14779,2.48765 c 5.235894,4.13786 8.942617,6.09675 13.960094,7.37748 4.34121,1.10812 9.80564,1.37005 14.11955,0.67681 z m 1.2672,-32.68255 c 8.02611,-0.87556 16.09327,-3.77177 22.63332,-8.12567 3.10196,-2.06506 8.26026,-6.91679 10.5495,-9.92254 3.78728,-4.97265 6.12423,-10.06517 7.73754,-16.8611 1.82778,-7.69937 1.94529,-15.55683 0.38975,-26.06146 -0.69226,-4.67488 -3.84301,-20.608135 -4.21127,-21.296221 -0.19035,-0.355678 -1.30265,-0.843769 -3.58732,-1.574165 -9.20115,-2.941553 -17.38929,-3.72178 -39.01205,-3.71736 -23.591024,0.0048 -31.654334,0.754128 -41.203435,3.828948 -2.63228,0.847597 -3.783421,1.341265 -3.878545,1.66332 -0.0744,0.25189 -0.314443,1.410482 -0.53343,2.574648 -0.218987,1.16417 -0.693834,3.44085 -1.055215,5.05931 -0.845917,3.78844 -2.089343,10.76503 -2.847212,15.97506 -0.862284,5.92785 -0.877117,15.4459 -0.03092,19.84375 1.14127,5.93144 3.054093,11.60293 5.218916,15.47399 1.601625,2.86397 4.841257,6.99643 7.794276,9.94233 6.971468,6.95465 16.843342,11.48507 28.46577,13.06356 3.25634,0.44226 10.12132,0.50984 13.57033,0.1336 z m -11.05678,-19.15129 c -8.075832,-1.16734 -16.689037,-4.84845 -21.185287,-9.05416 -1.167279,-1.09186 -1.304299,-1.33832 -1.304299,-2.34613 0,-1.88951 1.333585,-1.98357 3.564286,-0.25139 4.700947,3.65036 11.266636,6.66693 17.38121,7.98569 3.44684,0.74339 12.87132,0.66633 16.55923,-0.1354 3.13069,-0.6806 6.30381,-1.78047 8.88512,-3.07976 1.38781,-0.69855 1.94776,-0.85653 2.41131,-0.68029 1.2655,0.48114 1.28541,2.09675 0.0376,3.04852 -1.80347,1.37557 -7.76226,3.43717 -12.32268,4.26334 -3.14222,0.56925 -10.86436,0.70665 -14.02647,0.24958 z m 2.2571,-12.61301 c -3.26761,-0.47597 -7.07246,-2.20858 -8.67325,-3.94954 -0.783396,-0.852 -0.883462,-1.32028 -0.453711,-2.12328 0.439201,-0.82066 1.551851,-0.6032 3.556041,0.69501 2.7262,1.76588 4.88048,2.34277 8.04557,2.1545 3.22004,-0.19153 4.67443,-0.64135 7.43154,-2.29842 1.21477,-0.7301 2.40398,-1.32745 2.64269,-1.32745 0.66017,0 1.06902,0.54774 1.06902,1.43218 0,0.62283 -0.31745,1.09736 -1.45158,2.16983 -1.75942,1.66378 -4.56441,2.91498 -7.34444,3.27607 -2.21243,0.28737 -2.66939,0.28463 -4.82188,-0.0289 z m 22.77717,-10.56929 c -1.77924,-0.44154 -4.11203,-1.87218 -5.46292,-3.35027 -1.47929,-1.61858 -2.30554,-3.78289 -2.55319,-6.68795 -0.27724,-3.25207 1.77506,-7.7208 4.44641,-9.68175 2.55171,-1.87313 6.81896,-2.67118 9.81278,-1.83517 2.21556,0.6187 2.95754,1.02643 4.50939,2.47801 4.43699,4.15028 4.4424,12.15966 0.0112,16.59086 -1.97679,1.97678 -3.60759,2.60472 -6.95836,2.67932 -1.52797,0.034 -3.24036,-0.0529 -3.80531,-0.19305 z m 6.79338,-3.48917 c 4.55884,-1.93637 5.60488,-10.02093 1.72129,-13.30331 -1.55675,-1.31575 -3.03879,-1.82136 -5.37082,-1.83232 -1.79366,-0.008 -2.34697,0.10297 -3.62588,0.72997 -1.78708,0.87613 -2.66316,1.84112 -3.7254,4.10352 -0.70991,1.512 -0.77296,1.86421 -0.66305,3.70417 0.1444,2.41749 0.74331,3.74715 2.33585,5.18591 2.44574,2.20958 6.13542,2.76812 9.32801,1.41206 z m -5.89849,-2.20838 c -2.14604,-0.92955 -3.57358,-3.11765 -3.37593,-5.17457 0.21381,-2.22519 2.46514,-4.74245 4.59956,-5.14287 1.81409,-0.34033 3.21472,0.0963 4.59351,1.43206 2.07881,2.0139 2.38762,4.42469 0.88212,6.88646 -1.32205,2.1618 -4.28333,3.04538 -6.69926,1.99892 z m -56.040466,-2.96018 c -0.87705,-0.14127 -1.270557,-1.14672 -0.848026,-2.1668 0.428606,-1.03475 2.822211,-3.22884 4.292985,-3.93516 1.435891,-0.68956 3.947377,-1.0948 6.800921,-1.09736 4.685008,-0.004 7.671193,1.03562 9.940108,3.46128 1.01044,1.08024 1.194064,1.44191 1.194064,2.35189 0,0.89355 -0.113115,1.12688 -0.669102,1.3802 -0.568845,0.25919 -0.776982,0.21797 -1.389063,-0.27503 -3.698511,-2.97899 -4.699322,-3.34326 -9.186626,-3.34368 -3.217487,-3.1e-4 -3.535664,0.0467 -4.927596,0.72849 -0.818407,0.40085 -2.009032,1.18253 -2.645833,1.73706 -1.294568,1.12734 -1.679063,1.3013 -2.561832,1.15911 z m -4.880573,-19.36797 c -0.756474,-0.59504 -1.085045,-1.56316 -0.792576,-2.33527 0.543994,-1.43613 6.833819,-5.26213 10.483358,-6.37685 4.191331,-1.280203 12.662774,-1.708547 14.697329,-0.743142 2.210273,1.048782 2.186058,6.951932 -0.0349,8.507552 -0.786544,0.55092 -1.48621,0.52394 -4.454975,-0.17177 -2.124893,-0.49795 -3.2835,-0.58751 -7.701722,-0.59531 l -5.200567,-0.009 -2.163099,1.12448 c -2.451647,1.27448 -3.767275,1.43768 -4.83285,0.5995 z m 73.766329,-0.6405 -2.10367,-1.08348 -3.98175,-0.0885 c -3.88329,-0.0863 -4.79185,0.005 -10.5174,1.05654 -1.49016,0.27369 -1.88767,0.26466 -2.49067,-0.0566 -1.09231,-0.58196 -1.75916,-2.35839 -1.73287,-4.61624 0.0273,-2.34695 0.32651,-3.1647 1.39575,-3.81494 2.37451,-1.444034 12.42049,-0.676915 17.03636,1.3009 2.19599,0.94095 5.43864,2.96593 6.92916,4.32715 1.15852,1.05802 1.40522,1.43787 1.40522,2.16361 0,0.63586 -0.19358,1.03256 -0.69714,1.42866 -1.10311,0.86771 -2.7324,0.67594 -5.24299,-0.61711 z m -86.712057,38.59377 c 0.754016,-0.22392 1.370918,-0.43228 1.370893,-0.46302 -2.4e-5,-0.0307 -0.169827,-0.94886 -0.377339,-2.04027 -0.917696,-4.82662 -1.185821,-10.72441 -0.792924,-17.44152 l 0.181117,-3.09645 -1.349226,-0.86579 c -3.162176,-2.02917 -6.225783,-2.50678 -8.64179,-1.34726 -1.785537,0.85695 -4.095977,3.21878 -5.044025,5.15623 -0.706936,1.44471 -0.775349,1.82549 -0.760586,4.23333 0.02686,4.38116 1.547152,9.2245 3.820413,12.17106 1.212402,1.5715 2.970263,2.90952 4.723146,3.59508 1.559725,0.61002 4.98278,0.65915 6.870321,0.0986 z m 112.099057,-0.3752 c 0.77434,-0.36893 2.16186,-1.47438 3.34605,-2.66584 3.04542,-3.0641 4.57016,-6.63071 4.90113,-11.46453 0.12195,-1.78112 0.0474,-2.44993 -0.43176,-3.87272 -1.00023,-2.97009 -2.73815,-5.43892 -4.66856,-6.63198 -2.6378,-1.63024 -7.10008,-0.8932 -9.96639,1.64616 l -0.99869,0.88478 0.27478,3.50829 c 0.41233,5.26449 -0.0773,12.52343 -1.19285,17.6837 -0.17317,0.80103 -0.14591,0.82859 1.2369,1.25026 2.11981,0.64642 5.77926,0.48143 7.49939,-0.33812 z M 63.419373,95.033305 C 68.7567,92.671942 73.616307,91.290337 80.651546,90.13413 l 4.463659,-0.73358 0.0659,-1.043291 c 0.642319,-10.168933 4.460933,-17.732956 10.876414,-21.544324 9.919621,-5.893138 24.162561,-5.070236 32.743401,1.891788 2.95651,2.398744 5.53558,6.294138 6.69906,10.118175 0.71259,2.342065 1.60585,7.293743 1.60585,8.901821 0,0.684336 0.14883,1.366184 0.33073,1.515219 0.1819,0.149034 1.28323,0.406534 2.44739,0.572222 8.56087,1.218407 15.34991,3.224 21.4974,6.350677 l 2.97656,1.513911 0,-2.323882 c 0,-2.546842 -0.65845,-10.736137 -1.08247,-13.462856 -1.33688,-8.597113 -5.208,-16.149212 -11.46116,-22.359361 -3.69233,-3.666933 -6.96538,-6.076422 -11.26887,-8.295694 -7.44355,-3.838576 -14.48705,-5.572321 -24.99758,-6.153106 -9.82558,-0.542936 -20.88065,0.802811 -27.786791,3.382522 -3.08098,1.150865 -8.025417,3.735808 -10.973675,5.737018 -3.185374,2.162157 -7.897112,6.673139 -10.12851,9.696955 -5.717934,7.748499 -8.160159,15.979362 -8.584522,28.931827 l -0.163391,4.987036 1.431299,-0.806661 c 0.787215,-0.443663 2.621925,-1.333422 4.077133,-1.977241 z M 133.5784,86.983239 c -0.0906,-1.418828 -0.3163,-3.294063 -0.50149,-4.167188 l -0.33671,-1.5875 -4.06591,-0.0732 c -3.48135,-0.06268 -4.04454,-0.0175 -3.91724,0.314234 0.5811,1.514311 0.70441,3.64218 0.31832,5.492847 -0.22249,1.066472 -0.40462,2.024437 -0.40474,2.128812 -1.2e-4,0.104374 1.33923,0.227752 2.97634,0.274173 1.63711,0.04642 3.67849,0.109851 4.53639,0.140957 l 1.55983,0.05656 z m -32.98507,1.50116 c 3.01852,-0.190029 7.86204,-0.248463 12.6357,-0.152439 l 7.74091,0.155709 0.6435,-0.983725 c 0.97335,-1.48795 1.03984,-2.145175 0.3538,-3.497268 -0.49003,-0.96577 -0.90393,-1.340528 -2.19162,-1.984375 l -1.5875,-0.79375 -13.22917,-0.08416 c -7.276037,-0.04629 -13.728028,-0.0103 -14.337753,0.07997 -1.09046,0.161448 -1.113276,0.186695 -1.394968,1.543599 -0.560832,2.701513 -0.779645,5.579136 -0.454066,5.971435 0.331782,0.399772 1.987872,0.364047 11.821167,-0.255004 z m -1.399213,-1.57053 c -1.64592,-1.294681 -0.837069,-3.93379 1.212803,-3.957111 1.06954,-0.01217 2.03849,1.052828 2.03849,2.240543 0,0.655965 -0.20105,1.151146 -0.64943,1.599527 -0.78836,0.788359 -1.69649,0.82921 -2.601863,0.117041 z M 110.17283,86.70701 c -1.40846,-1.408458 -0.77778,-3.549079 1.09254,-3.708271 1.14878,-0.09778 2.29254,0.853736 2.29254,1.907198 0,1.597564 -2.34233,2.843827 -3.38508,1.801073 z m -3.03352,-8.937904 c 9.88617,-0.108515 17.18194,-0.06927 20.03786,0.107782 2.47012,0.153136 4.53195,0.237605 4.58185,0.187709 0.18376,-0.183758 -1.35929,-2.963899 -2.4043,-4.331865 -1.97068,-2.57972 -5.99546,-4.942267 -10.50527,-6.166591 -1.99162,-0.540685 -2.85406,-0.611344 -7.5405,-0.6178 -4.70029,-0.0065 -5.53817,0.06011 -7.49739,0.595782 -5.511062,1.506782 -9.686387,4.405638 -12.065976,8.377197 -1.008462,1.683132 -1.193821,2.417833 -0.547419,2.169786 0.21693,-0.08324 7.390445,-0.228144 15.941145,-0.322 z m 3.7397,-35.996542 c 0.45475,-0.09095 0.82682,-0.266568 0.82682,-0.390261 0,-0.268617 -1.61205,-0.002 -1.97115,0.32603 -0.30254,0.276352 -9.3e-4,0.293282 1.14433,0.06423 z"
       id="path1" /></g></svg>
